<svg xmlns="http://www.w3.org/2000/svg" x="0px" y="0px" width="64" height="64" viewBox="0 0 64 64">
<path fill="#b6b6ef" d="M50,58H14c-4.418,0-8-3.582-8-8V14c0-4.418,3.582-8,8-8h36c4.418,0,8,3.582,8,8v36 C58,54.418,54.418,58,50,58z"></path><path fill="#a2a2ea" d="M15,52h33c2.209,0,9-1.791,9-4l0,0c0-1.657-1.343-3-3-3H10c-1.657,0-3,1.343-3,3l0,0 C7,50.209,12.791,52,15,52z"></path><polygon fill="#f283a5" points="22,57 12.846,57 7,54.027 7,48.378 12.558,52 22,52"></polygon><polygon fill="#80a6dd" points="42,57 51.154,57 57,54.027 57,48.378 51.442,52 42,52"></polygon><rect width="10" height="5" x="22" y="52" fill="#f9e3ae"></rect><rect width="10" height="5" x="32" y="52" fill="#72caaf"></rect><circle cx="44" cy="37.499" r="3" fill="#faefde"></circle><path fill="#faefde" d="M30.506,38c-1.594,0.001-3.19-0.285-4.728-0.859c-3.378-1.261-6.063-3.762-7.561-7.042 c-3.091-6.772-0.096-14.796,6.676-17.887s14.795-0.096,17.887,6.676c1.497,3.28,1.628,6.947,0.366,10.326 c-0.482,1.294-1.924,1.953-3.216,1.468c-1.294-0.482-1.951-1.922-1.468-3.216c0.794-2.128,0.712-4.437-0.231-6.502 c-1.945-4.264-6.998-6.148-11.262-4.203c-4.264,1.946-6.149,6.998-4.203,11.262c0.942,2.065,2.633,3.641,4.76,4.435 c2.129,0.792,4.437,0.711,6.502-0.231c1.256-0.572,2.739-0.02,3.312,1.236s0.02,2.739-1.236,3.312 C34.318,37.591,32.414,38,30.506,38z"></path><path fill="#8d6c9f" d="M47,48c-0.553,0-1-0.447-1-1v-2c0-0.553,0.447-1,1-1s1,0.447,1,1v2C48,47.553,47.553,48,47,48z"></path><path fill="#8d6c9f" d="M42,48c-0.553,0-1-0.447-1-1v-2c0-0.553,0.447-1,1-1s1,0.447,1,1v2C43,47.553,42.553,48,42,48z"></path><path fill="#8d6c9f" d="M37,48c-0.553,0-1-0.447-1-1v-2c0-0.553,0.447-1,1-1s1,0.447,1,1v2C38,47.553,37.553,48,37,48z"></path><path fill="#8d6c9f" d="M32,48c-0.553,0-1-0.447-1-1v-2c0-0.553,0.447-1,1-1s1,0.447,1,1v2C33,47.553,32.553,48,32,48z"></path><path fill="#8d6c9f" d="M27,48c-0.553,0-1-0.447-1-1v-2c0-0.553,0.447-1,1-1s1,0.447,1,1v2C28,47.553,27.553,48,27,48z"></path><path fill="#8d6c9f" d="M22,48c-0.553,0-1-0.447-1-1v-2c0-0.553,0.447-1,1-1s1,0.447,1,1v2C23,47.553,22.553,48,22,48z"></path><path fill="#8d6c9f" d="M17,48c-0.553,0-1-0.447-1-1v-2c0-0.553,0.447-1,1-1s1,0.447,1,1v2C18,47.553,17.553,48,17,48z"></path><path fill="#8d6c9f" d="M51,6H13c-3.86,0-7,3.141-7,7v29v2v7c0,3.859,3.14,7,7,7h38c3.86,0,7-3.141,7-7v-7v-3V13	C58,9.141,54.86,6,51,6z M56,51c0,2.757-2.243,5-5,5H13c-2.757,0-5-2.243-5-5v-1.355C9.651,51.688,12.174,53,15,53h34	c2.826,0,5.349-1.312,7-3.355V51z M56,44c0,3.859-3.141,7-7,7H15c-3.859,0-7-3.141-7-7v-2V13c0-2.757,2.243-5,5-5h38	c2.757,0,5,2.243,5,5v28V44z"></path><path fill="#8d6c9f" d="M30.498,39.006c-1.726,0-3.431-0.311-5.069-0.923c-3.629-1.354-6.513-4.04-8.121-7.563 c-3.319-7.273-0.103-15.892,7.171-19.211c7.275-3.317,15.89-0.103,19.211,7.17c1.609,3.524,1.749,7.463,0.394,11.091 c-0.327,0.877-0.977,1.575-1.829,1.963c-0.851,0.388-1.801,0.419-2.675,0.091c-0.874-0.326-1.57-0.974-1.959-1.824 c-0.388-0.851-0.421-1.801-0.094-2.678c0.7-1.877,0.628-3.915-0.204-5.736c-1.718-3.764-6.178-5.425-9.938-3.709 c-3.762,1.717-5.426,6.175-3.708,9.937c0.831,1.823,2.322,3.212,4.199,3.913c1.88,0.7,3.917,0.626,5.737-0.204 c1.757-0.8,3.838-0.024,4.637,1.73c0.802,1.756,0.025,3.836-1.73,4.638c-1.911,0.872-3.935,1.315-6.013,1.315l0,0 C30.504,39.006,30.501,39.006,30.498,39.006z M30.479,12c-1.733,0-3.493,0.362-5.171,1.128c-6.27,2.862-9.043,10.292-6.181,16.562 c1.386,3.037,3.872,5.352,7,6.52c1.414,0.528,2.885,0.796,4.37,0.796c0.002,0,0.005,0,0.007,0h0.001 c1.79,0,3.534-0.382,5.184-1.135c0.364-0.167,0.643-0.465,0.782-0.841c0.141-0.375,0.126-0.783-0.041-1.147 c-0.342-0.751-1.232-1.083-1.987-0.741c-2.309,1.052-4.888,1.143-7.266,0.259c-2.378-0.888-4.268-2.647-5.321-4.957 c-1.052-2.305-1.143-4.885-0.254-7.265c0.889-2.379,2.646-4.27,4.952-5.322c2.306-1.053,4.886-1.142,7.265-0.254 c2.38,0.888,4.271,2.646,5.322,4.952c1.054,2.308,1.146,4.888,0.258,7.267c-0.14,0.376-0.126,0.783,0.041,1.147 c0.166,0.364,0.464,0.642,0.84,0.782c0.375,0.141,0.78,0.127,1.145-0.039c0.366-0.167,0.645-0.465,0.785-0.841 c1.168-3.128,1.047-6.524-0.34-9.562C39.773,14.717,35.227,12,30.479,12z"></path><path fill="#8d6c9f" d="M44,41.499c-2.206,0-4-1.794-4-4s1.794-4,4-4s4,1.794,4,4S46.206,41.499,44,41.499z M44,35.499 c-1.103,0-2,0.897-2,2s0.897,2,2,2s2-0.897,2-2S45.103,35.499,44,35.499z"></path>
</svg>